<svg xmlns="http://www.w3.org/2000/svg" xmlns:xlink="http://www.w3.org/1999/xlink" width="646.919" height="381.638" viewBox="0 0 646.919 381.638">
  <defs>
    <filter id="Path_1" x="0" y="0" width="646.919" height="381.638" filterUnits="userSpaceOnUse">
      <feOffset dy="3" input="SourceAlpha"/>
      <feGaussianBlur stdDeviation="3" result="blur"/>
      <feFlood flood-opacity="0.475"/>
      <feComposite operator="in" in2="blur"/>
      <feComposite in="SourceGraphic"/>
    </filter>
  </defs>
  <g id="Group_1" data-name="Group 1" transform="translate(9.008 6)">
    <g transform="matrix(1, 0, 0, 1, -9.01, -6)" filter="url(#Path_1)">
      <g id="Path_1-2" data-name="Path 1" transform="translate(9 6)" fill="#fc8686">
        <path d="M 589.4430541992188 362.1375122070312 L 39.47562408447266 362.1375122070312 C 34.34262466430664 362.1375122070312 29.36437225341797 361.1631774902344 24.67912292480469 359.2416687011719 C 20.1558723449707 357.3865051269531 16.09403991699219 354.7311706542969 12.60637283325195 351.3494262695312 C 9.121955871582031 347.9707641601562 6.3868727684021 344.0376586914062 4.477122783660889 339.6595764160156 C 2.501706123352051 335.1308288574219 1.500039577484131 330.3197631835938 1.500039577484131 325.3599243164062 L 1.500039577484131 38.27767181396484 C 1.500039577484131 33.31784057617188 2.501706123352051 28.50675582885742 4.477122783660889 23.97800636291504 C 6.3868727684021 19.59984016418457 9.121955871582031 15.66683959960938 12.60637283325195 12.28817272186279 C 16.09403991699219 8.906339645385742 20.1558723449707 6.251006126403809 24.67912292480469 4.395839214324951 C 29.36437225341797 2.474339485168457 34.34262466430664 1.500006079673767 39.47562408447266 1.500006079673767 L 589.4430541992188 1.500006079673767 C 594.5760498046875 1.500006079673767 599.5542602539062 2.474339485168457 604.2394409179688 4.395839214324951 C 608.7626953125 6.251006126403809 612.8246459960938 8.906339645385742 616.3123168945312 12.28817272186279 C 619.7966918945312 15.66683959960938 622.5317993164062 19.59984016418457 624.4415283203125 23.97800636291504 C 626.4169311523438 28.50675582885742 627.4186401367188 33.31784057617188 627.4186401367188 38.27767181396484 L 627.4186401367188 325.3599243164062 C 627.4186401367188 330.3197631835938 626.4169311523438 335.1308288574219 624.4415283203125 339.6595764160156 C 622.5317993164062 344.0376586914062 619.7966918945312 347.9707641601562 616.3123168945312 351.3494262695312 C 612.8246459960938 354.7311706542969 608.7626953125 357.3865051269531 604.2394409179688 359.2416687011719 C 599.5542602539062 361.1631774902344 594.5760498046875 362.1375122070312 589.4430541992188 362.1375122070312 Z" stroke="none"/>
        <path d="M 39.47564697265625 3 C 34.538818359375 3 29.75201416015625 3.93658447265625 25.248291015625 5.783660888671875 C 20.9024658203125 7.566009521484375 17.00042724609375 10.11676025390625 13.65045166015625 13.36502075195312 C 10.30706787109375 16.60708618164062 7.6832275390625 20.37957763671875 5.8519287109375 24.5777587890625 C 3.95953369140625 28.91616821289062 2.99993896484375 33.5255126953125 2.99993896484375 38.27767944335938 L 2.99993896484375 325.3599243164062 C 2.99993896484375 330.1120910644531 3.95947265625 334.721435546875 5.8519287109375 339.0598449707031 C 7.6832275390625 343.2579956054688 10.30694580078125 347.030517578125 13.65045166015625 350.2724914550781 C 17.00042724609375 353.520751953125 20.9024658203125 356.0715026855469 25.248291015625 357.8538513183594 C 29.75201416015625 359.700927734375 34.538818359375 360.6375122070312 39.47564697265625 360.6375122070312 L 589.4430541992188 360.6375122070312 C 594.3798828125 360.6375122070312 599.1665649414062 359.700927734375 603.6702880859375 357.8538513183594 C 608.0160522460938 356.0715026855469 611.9181518554688 353.5208435058594 615.26806640625 350.2724914550781 C 618.6115112304688 347.030517578125 621.2352905273438 343.2579956054688 623.0665283203125 339.0598449707031 C 624.9590454101562 334.721435546875 625.9185180664062 330.1120910644531 625.9185180664062 325.3599243164062 L 625.9185180664062 38.27767944335938 C 625.9185180664062 33.5255126953125 624.9590454101562 28.91616821289062 623.0665283203125 24.5777587890625 C 621.2352905273438 20.37957763671875 618.6115112304688 16.60708618164062 615.26806640625 13.36502075195312 C 611.9181518554688 10.11676025390625 608.0160522460938 7.566009521484375 603.6702880859375 5.783660888671875 C 599.1665649414062 3.93658447265625 594.3797607421875 3 589.4430541992188 3 L 39.47564697265625 3 M 39.47564697265625 0 L 589.4430541992188 0 C 611.2446899414062 0 628.9185180664062 17.13751220703125 628.9185180664062 38.27767944335938 L 628.9185180664062 325.3599243164062 C 628.9185180664062 346.5000915527344 611.2446899414062 363.6375122070312 589.4430541992188 363.6375122070312 L 39.47564697265625 363.6375122070312 C 17.67376708984375 363.6375122070312 -6.103515625e-05 346.5000915527344 -6.103515625e-05 325.3599243164062 L -6.103515625e-05 38.27767944335938 C -6.103515625e-05 17.13751220703125 17.67376708984375 0 39.47564697265625 0 Z" stroke="none"/>
      </g>
    </g>
    <line id="Line_2" data-name="Line 2" x2="628.919" transform="translate(0.483 303.224)" fill="none" stroke="#707070" stroke-width="3"/>
    <text id="Hello_my_name_is" data-name="Hello, my name is" transform="translate(53.544 87.725)" fill="#fff" font-size="59" font-family="OpenSans-Bold, Open Sans" font-weight="700"><tspan x="0" y="0">Hello, my name is</tspan></text>
    <g id="Path_2" data-name="Path 2" transform="translate(-0.456 124.658)" fill="#fff">
      <path d="M 626.8716430664062 189.4908447265625 L 1.500041007995605 189.4908447265625 L 1.500041007995605 1.50001335144043 L 626.8716430664062 1.50001335144043 L 626.8716430664062 189.4908447265625 Z" stroke="none"/>
      <path d="M 2.99993896484375 3.000015258789062 L 2.99993896484375 187.9908447265625 L 625.3715209960938 187.9908447265625 L 625.3715209960938 3.000015258789062 L 2.99993896484375 3.000015258789062 M -6.103515625e-05 1.52587890625e-05 L 628.3715209960938 1.52587890625e-05 L 628.3715209960938 190.9908447265625 L -6.103515625e-05 190.9908447265625 L -6.103515625e-05 1.52587890625e-05 Z" stroke="none"/>
    </g>
    <text id="Aileen_Nam" data-name="Aileen Nam" transform="translate(94.544 249.725)" font-size="76" font-family="OpenSans-Bold, Open Sans" font-weight="700"><tspan x="0" y="0">Aileen Nam</tspan></text>
  </g>
</svg>
